<svg version="1.1" xmlns="http://www.w3.org/2000/svg" xmlns:xlink="http://www.w3.org/1999/xlink" viewBox="0 0 172 172"><defs><linearGradient x1="86" y1="61.8125" x2="86" y2="153.1875" gradientUnits="userSpaceOnUse" id="color-1"><stop offset="0" stop-color="#8ab4ff"></stop><stop offset="1" stop-color="#e492ff"></stop></linearGradient><linearGradient x1="86" y1="6.38281" x2="86" y2="165.62256" gradientUnits="userSpaceOnUse" id="color-2"><stop offset="0" stop-color="#1a6dff"></stop><stop offset="1" stop-color="#c822ff"></stop></linearGradient><linearGradient x1="86" y1="6.38281" x2="86" y2="165.62256" gradientUnits="userSpaceOnUse" id="color-3"><stop offset="0" stop-color="#1a6dff"></stop><stop offset="1" stop-color="#c822ff"></stop></linearGradient></defs><g fill="none" fill-rule="nonzero" stroke="none" stroke-width="1" stroke-linecap="butt" stroke-linejoin="miter" stroke-miterlimit="10" stroke-dasharray="" stroke-dashoffset="0" font-family="none" font-weight="none" font-size="none" text-anchor="none" style="mix-blend-mode: normal"><path d="M0,172v-172h172v172z" fill="none"></path><g><path d="M86,153.1875c-25.19263,0 -45.6875,-20.49488 -45.6875,-45.6875c0,-25.19263 20.49488,-45.6875 45.6875,-45.6875c13.52888,0 26.28375,5.94475 34.99662,16.31581c6.89344,8.20763 10.69088,18.63781 10.69088,29.37169c0,25.19262 -20.49487,45.6875 -45.6875,45.6875zM86,67.1875c-22.22831,0 -40.3125,18.08419 -40.3125,40.3125c0,22.22831 18.08419,40.3125 40.3125,40.3125c22.22831,0 40.3125,-18.08419 40.3125,-40.3125c0,-9.47075 -3.34863,-18.67544 -9.43044,-25.91556c-7.68894,-9.14825 -18.94419,-14.39694 -30.88206,-14.39694z" fill="url(#color-1)"></path><path d="M115.5625,59.51469v-11.13969c0,-2.96431 -2.41069,-5.375 -5.375,-5.375h-2.6875v-13.4375c0,-11.85456 -9.64544,-21.5 -21.5,-21.5c-11.85456,0 -21.5,9.64544 -21.5,21.5v13.4375h-2.6875c-2.96431,0 -5.375,2.41069 -5.375,5.375v11.13969c-16.09544,9.9545 -26.875,27.71081 -26.875,47.98531c0,31.12125 25.31625,56.4375 56.4375,56.4375c31.12125,0 56.4375,-25.31625 56.4375,-56.4375c0,-20.2745 -10.77956,-38.03081 -26.875,-47.98531zM110.1875,48.375v8.21031c-3.41313,-1.62863 -7.00362,-2.91862 -10.75,-3.83775v-4.37256zM69.875,29.5625c0,-8.89294 7.23206,-16.125 16.125,-16.125c8.89294,0 16.125,7.23206 16.125,16.125v13.4375h-2.6875c-2.96431,0 -5.375,2.41069 -5.375,5.375v3.3325c-2.64181,-0.38162 -5.31856,-0.645 -8.0625,-0.645c-2.74394,0 -5.42069,0.26337 -8.0625,0.645v-3.3325c0,-2.96431 -2.41069,-5.375 -5.375,-5.375h-2.6875zM61.8125,48.375h10.75v4.37256c-3.74638,0.91913 -7.33688,2.21181 -10.75,3.83775zM86,158.5625c-28.15694,0 -51.0625,-22.90556 -51.0625,-51.0625c0,-28.15694 22.90556,-51.0625 51.0625,-51.0625c28.15694,0 51.0625,22.90556 51.0625,51.0625c0,28.15694 -22.90556,51.0625 -51.0625,51.0625z" fill="url(#color-2)"></path><path d="M86,86c-8.89294,0 -16.125,7.23206 -16.125,16.125c0,5.95281 3.25187,11.15044 8.0625,13.94275v7.55725c0,4.44512 3.61737,8.0625 8.0625,8.0625c4.44512,0 8.0625,-3.61738 8.0625,-8.0625v-7.55725c4.81063,-2.79231 8.0625,-7.98994 8.0625,-13.94275c0,-8.89294 -7.23206,-16.125 -16.125,-16.125zM88.6875,123.625c0,1.48081 -1.20669,2.6875 -2.6875,2.6875c-1.48081,0 -2.6875,-1.20669 -2.6875,-2.6875v-5.375h5.375zM86,112.875c-5.92862,0 -10.75,-4.82137 -10.75,-10.75c0,-5.92863 4.82138,-10.75 10.75,-10.75c5.92863,0 10.75,4.82137 10.75,10.75c0,5.92863 -4.82137,10.75 -10.75,10.75z" fill="url(#color-3)"></path></g></g></svg>